<svg xmlns="http://www.w3.org/2000/svg" width="216" height="288" viewBox="0 0 216 288" fill="none">
  <g stroke="#4F46E5" stroke-width="1.35" stroke-linecap="round" stroke-linejoin="round" opacity="0.085">
    <!-- Adinkrahene-inspired concentric circles -->
    <g transform="translate(48 48)">
      <circle r="20"/>
      <circle r="12"/>
      <circle r="4"/>
    </g>

    <!-- Nkyinkyim-inspired turning path -->
    <g transform="translate(136 36)">
      <path d="M0 0 13 13 0 26 13 39 0 52"/>
      <path d="M13 0 26 13 13 26 26 39 13 52"/>
    </g>

    <!-- Linked unity motif -->
    <g transform="translate(40 146)">
      <path d="M0 16 16 0l16 16-16 16L0 16Z"/>
      <path d="m20 16 16-16 16 16-16 16-16-16Z"/>
      <circle cx="26" cy="16" r="4"/>
    </g>

    <!-- Four-direction wisdom motif -->
    <g transform="translate(148 160)">
      <circle r="5"/>
      <path d="M0-27 9-9 0-14-9-9 0-27ZM27 0 9 9l5-9-5-9L27 0ZM0 27-9 9l9 5 9-5L0 27ZM-27 0-9-9l-5 9 5 9-18-9Z"/>
    </g>

    <!-- Small stepped motif -->
    <g transform="translate(65 242)">
      <path d="M-22 13-11 2 0 13 11 2 22 13M-22 2l11-11L0 2 11-11 22 2"/>
    </g>

    <g transform="translate(167 253)">
      <circle r="14"/>
      <path d="M-14 0h28M0-14v28M-10-10l20 20M10-10l-20 20"/>
    </g>
  </g>
</svg>
